<?xml version="1.0" encoding="UTF-8" standalone="no"?>
<!DOCTYPE svg PUBLIC "-//W3C//DTD SVG 1.1//EN" "http://www.w3.org/Graphics/SVG/1.1/DTD/svg11.dtd">
<svg xmlns="http://www.w3.org/2000/svg" version="1.1" viewBox="0.00 0.00 1024.00 1024.00">
<path fill="#fcfcfc" d="
  M 1024.00 0.00
  L 1024.00 1024.00
  L 0.00 1024.00
  L 0.00 0.00
  L 1024.00 0.00
  Z
  M 902.23 462.39
  L 894.50 462.58
  L 772.87 462.53
  L 651.25 462.82
  L 631.26 462.99
  L 552.13 464.33
  L 473.02 466.24
  L 473.02 466.24
  L 473.02 466.24
  L 386.12 469.00
  L 299.24 472.45
  L 279.26 473.43
  L 176.75 478.60
  L 163.62 479.27
  L 154.16 479.93
  L 145.94 480.75
  L 138.51 481.79
  L 138.42 481.84
  L 138.40 481.93
  L 138.43 482.22
  L 138.49 482.38
  L 138.65 482.43
  L 310.78 483.65
  L 443.01 484.17
  L 675.30 484.38
  L 926.67 484.31
  L 926.81 484.29
  L 927.26 483.75
  L 927.30 483.53
  L 927.28 416.26
  L 927.08 405.69
  L 926.42 396.59
  L 925.27 388.46
  L 923.60 381.01
  L 921.36 374.17
  L 918.52 367.90
  L 915.13 362.27
  L 913.21 359.68
  L 911.11 357.18
  L 907.65 353.67
  L 903.89 350.53
  L 898.60 346.89
  L 892.85 343.67
  L 886.63 340.86
  L 879.95 338.48
  L 872.24 336.28
  L 864.13 334.40
  L 855.48 332.81
  L 846.35 331.52
  L 836.76 330.52
  L 826.31 329.77
  L 814.89 329.26
  L 801.74 328.96
  L 779.51 328.90
  L 756.86 329.38
  L 733.61 330.41
  L 709.90 331.99
  L 685.61 334.11
  L 660.58 336.79
  L 634.95 340.02
  L 608.48 343.83
  L 597.82 345.48
  L 568.29 350.36
  L 538.79 355.68
  L 509.22 361.46
  L 479.63 367.70
  L 449.92 374.40
  L 420.10 381.57
  L 390.01 389.24
  L 359.69 397.41
  L 333.32 404.94
  L 307.13 412.90
  L 281.12 421.28
  L 255.29 430.09
  L 229.65 439.32
  L 204.19 448.97
  L 178.91 459.05
  L 153.81 469.56
  L 153.24 469.87
  L 153.07 470.12
  L 153.07 470.12
  L 153.30 470.33
  L 153.92 470.48
  L 154.93 470.18
  L 167.36 466.08
  L 179.37 462.40
  L 191.85 458.72
  L 227.41 448.31
  L 253.51 440.95
  L 290.96 430.94
  L 328.52 421.44
  L 366.19 412.45
  L 403.97 403.98
  L 434.50 397.52
  L 465.11 391.39
  L 495.78 385.60
  L 526.53 380.14
  L 549.69 376.29
  L 572.74 372.74
  L 595.68 369.48
  L 618.49 366.52
  L 641.19 363.85
  L 663.78 361.47
  L 686.25 359.39
  L 708.60 357.61
  L 737.19 355.88
  L 764.94 354.94
  L 791.79 354.80
  L 804.77 355.04
  L 817.50 355.47
  L 831.91 356.49
  L 846.94 358.34
  L 855.84 359.90
  L 863.66 361.78
  L 870.69 364.06
  L 877.00 366.76
  L 882.55 369.89
  L 887.40 373.47
  L 889.52 375.40
  L 891.50 377.47
  L 893.27 379.62
  L 894.90 381.92
  L 897.53 386.68
  L 899.49 391.82
  L 900.82 397.21
  L 901.74 403.35
  L 902.30 410.46
  L 902.52 419.06
  L 902.60 462.00
  L 902.49 462.27
  L 902.23 462.39
  Z
  M 800.65 420.65
  L 816.31 421.45
  L 830.90 422.75
  L 844.24 424.53
  L 856.22 426.77
  L 875.88 431.21
  L 876.21 431.15
  L 876.40 430.88
  L 876.40 430.73
  L 875.12 425.12
  L 873.28 420.10
  L 870.90 415.68
  L 867.95 411.80
  L 866.21 410.01
  L 864.32 408.37
  L 860.09 405.48
  L 855.16 403.07
  L 849.60 401.18
  L 840.63 399.03
  L 832.04 397.67
  L 820.33 396.52
  L 808.09 395.65
  L 795.32 395.05
  L 782.02 394.73
  L 764.09 394.63
  L 745.73 394.81
  L 726.94 395.26
  L 707.72 395.99
  L 669.09 398.04
  L 630.63 400.74
  L 592.35 404.08
  L 554.24 408.07
  L 521.54 411.92
  L 488.93 416.02
  L 456.40 420.39
  L 423.96 425.01
  L 391.61 429.90
  L 359.34 435.04
  L 327.16 440.44
  L 295.07 446.10
  L 260.10 452.57
  L 224.99 459.40
  L 189.76 466.56
  L 154.39 474.08
  L 150.15 475.17
  L 149.73 475.30
  L 149.61 475.39
  L 149.60 475.53
  L 149.66 475.79
  L 149.84 476.09
  L 150.19 476.14
  L 171.00 473.02
  L 249.92 462.77
  L 329.49 452.76
  L 361.85 448.95
  L 400.42 444.77
  L 445.22 440.22
  L 496.23 435.29
  L 561.26 429.50
  L 590.09 427.24
  L 617.43 425.31
  L 644.04 423.66
  L 669.89 422.31
  L 695.35 421.23
  L 720.71 420.42
  L 721.67 420.39
  L 741.44 420.01
  L 761.19 419.93
  L 780.93 420.14
  L 800.65 420.65
  Z
  M 96.77 512.98
  L 97.06 513.46
  L 97.61 513.43
  L 97.70 513.36
  L 123.46 487.23
  L 123.60 487.00
  L 123.62 486.85
  L 123.65 407.27
  L 123.49 406.89
  L 123.11 406.73
  L 97.38 406.79
  L 97.25 406.81
  L 96.95 407.00
  L 96.84 407.33
  L 96.77 512.98
  Z
  M 897.76 613.09
  L 897.39 617.45
  L 896.79 621.76
  L 895.97 626.01
  L 894.91 630.19
  L 893.65 634.22
  L 892.16 638.14
  L 890.46 641.95
  L 888.54 645.62
  L 886.45 649.06
  L 884.16 652.35
  L 881.73 655.39
  L 879.11 658.27
  L 876.33 660.93
  L 873.35 663.40
  L 870.28 665.61
  L 867.03 667.61
  L 862.56 669.86
  L 857.81 671.73
  L 852.91 673.15
  L 847.74 674.15
  L 841.62 674.82
  L 835.53 675.01
  L 829.48 674.73
  L 823.48 673.96
  L 817.70 672.75
  L 811.98 671.08
  L 806.36 668.94
  L 800.82 666.34
  L 800.77 666.32
  L 800.27 666.33
  L 799.94 666.71
  L 794.77 683.84
  L 794.79 684.28
  L 795.08 684.60
  L 801.05 687.42
  L 807.18 689.76
  L 807.18 689.76
  L 807.18 689.76
  L 814.00 691.77
  L 821.01 693.23
  L 828.16 694.13
  L 835.21 694.45
  L 842.23 694.19
  L 849.11 693.37
  L 855.89 691.97
  L 862.47 690.01
  L 868.82 687.52
  L 874.91 684.49
  L 880.48 681.12
  L 885.77 677.28
  L 890.76 673.00
  L 895.42 668.29
  L 899.69 663.21
  L 903.59 657.73
  L 907.06 651.94
  L 910.14 645.79
  L 912.97 638.83
  L 915.30 631.45
  L 917.11 623.80
  L 918.41 615.81
  L 919.18 607.53
  L 919.43 599.00
  L 919.14 590.39
  L 918.33 581.65
  L 917.07 573.99
  L 915.21 566.58
  L 912.76 559.54
  L 909.77 553.04
  L 906.22 546.97
  L 902.20 541.50
  L 897.60 536.49
  L 892.59 532.11
  L 888.94 529.48
  L 885.04 527.10
  L 880.99 525.02
  L 876.69 523.20
  L 870.32 521.13
  L 863.52 519.62
  L 856.29 518.67
  L 848.63 518.28
  L 841.15 518.47
  L 833.98 519.25
  L 827.02 520.64
  L 820.48 522.59
  L 814.33 525.11
  L 808.66 528.16
  L 803.37 531.80
  L 798.61 535.92
  L 798.29 536.23
  L 796.06 538.58
  L 792.27 543.37
  L 789.03 548.70
  L 786.45 554.40
  L 784.54 560.35
  L 783.29 566.68
  L 782.76 573.12
  L 782.93 579.62
  L 783.81 586.10
  L 785.13 591.62
  L 786.90 596.83
  L 789.15 601.73
  L 791.85 606.33
  L 791.85 606.33
  L 791.85 606.33
  L 791.85 606.33
  L 795.09 610.70
  L 798.80 614.76
  L 803.00 618.50
  L 807.68 621.92
  L 812.59 624.84
  L 817.88 627.33
  L 823.41 629.33
  L 829.30 630.89
  L 835.44 631.97
  L 841.90 632.60
  L 848.67 632.76
  L 855.69 632.46
  L 861.24 631.83
  L 866.67 630.76
  L 871.87 629.30
  L 876.90 627.41
  L 881.60 625.17
  L 886.08 622.51
  L 890.22 619.52
  L 894.11 616.12
  L 897.23 612.87
  L 897.65 612.60
  L 897.76 613.09
  Z
  M 117.64 672.87
  L 117.34 672.76
  L 117.16 672.39
  L 117.20 520.49
  L 117.06 520.15
  L 116.72 520.01
  L 97.21 519.93
  L 96.87 520.07
  L 96.73 520.41
  L 96.85 691.80
  L 96.97 692.12
  L 97.28 692.28
  L 97.33 692.28
  L 213.69 692.20
  L 213.89 692.16
  L 214.17 691.72
  L 214.10 673.28
  L 213.96 672.94
  L 213.62 672.80
  L 117.64 672.87
  Z
  M 278.79 563.31
  L 284.31 572.66
  L 289.70 582.25
  L 312.66 624.32
  L 335.22 666.19
  L 335.65 666.63
  L 336.24 666.79
  L 348.64 666.77
  L 349.10 666.65
  L 349.41 666.32
  L 406.11 562.65
  L 406.22 562.57
  L 406.57 562.59
  L 406.71 563.00
  L 406.90 691.26
  L 407.15 691.87
  L 407.77 692.12
  L 426.06 692.13
  L 426.47 691.96
  L 426.64 691.56
  L 426.53 520.67
  L 426.38 520.20
  L 425.91 520.05
  L 409.07 520.11
  L 408.51 520.27
  L 408.11 520.70
  L 402.25 531.77
  L 342.88 640.10
  L 342.51 640.35
  L 342.09 640.21
  L 342.09 640.21
  L 342.01 640.10
  L 277.41 520.73
  L 276.87 520.17
  L 276.12 519.97
  L 258.65 520.01
  L 258.54 520.03
  L 258.31 520.35
  L 258.32 691.52
  L 258.53 692.01
  L 259.02 692.22
  L 277.94 692.10
  L 277.94 692.10
  L 278.24 691.97
  L 278.36 691.67
  L 278.25 563.46
  L 278.38 562.90
  L 278.79 563.31
  Z
  M 565.63 597.71
  L 565.52 597.65
  L 565.42 597.36
  L 565.59 597.11
  L 569.86 594.59
  L 573.61 591.72
  L 576.93 588.44
  L 579.71 584.84
  L 581.72 581.47
  L 583.34 577.91
  L 584.59 574.07
  L 585.44 570.09
  L 585.90 565.91
  L 585.95 561.62
  L 585.61 557.25
  L 584.88 552.81
  L 583.50 547.67
  L 581.58 542.95
  L 579.09 538.56
  L 576.11 534.63
  L 573.44 531.85
  L 570.49 529.37
  L 567.28 527.18
  L 563.83 525.30
  L 560.11 523.70
  L 556.18 522.42
  L 552.04 521.47
  L 547.73 520.84
  L 542.67 520.42
  L 537.60 520.23
  L 537.60 520.23
  L 535.62 520.22
  L 499.18 520.36
  L 498.71 520.52
  L 498.55 520.99
  L 498.61 539.22
  L 498.92 539.60
  L 499.00 539.61
  L 537.18 539.64
  L 541.22 539.80
  L 544.90 540.24
  L 548.34 540.94
  L 551.56 541.95
  L 554.39 543.19
  L 556.97 544.72
  L 559.21 546.50
  L 561.18 548.58
  L 563.17 551.54
  L 564.69 554.99
  L 565.66 558.80
  L 566.11 563.10
  L 565.97 567.52
  L 565.21 571.58
  L 563.83 575.39
  L 561.89 578.80
  L 559.94 581.23
  L 557.69 583.38
  L 555.07 585.28
  L 552.18 586.86
  L 549.05 588.11
  L 545.70 589.01
  L 542.16 589.56
  L 538.46 589.75
  L 520.85 589.80
  L 520.52 589.93
  L 520.39 590.26
  L 520.51 608.76
  L 520.68 609.17
  L 521.09 609.34
  L 528.44 609.29
  L 539.31 609.32
  L 543.40 609.62
  L 547.14 610.13
  L 550.66 610.89
  L 553.92 611.90
  L 557.04 613.20
  L 559.91 614.76
  L 560.29 614.99
  L 563.32 617.19
  L 565.93 619.69
  L 568.15 622.49
  L 569.96 625.52
  L 571.43 628.87
  L 572.48 632.40
  L 573.17 636.24
  L 573.43 640.17
  L 573.28 644.26
  L 572.73 648.35
  L 571.64 652.84
  L 570.08 656.92
  L 568.06 660.59
  L 565.58 663.86
  L 565.58 663.86
  L 563.70 665.78
  L 561.61 667.52
  L 559.33 669.09
  L 556.85 670.48
  L 554.17 671.69
  L 551.29 672.73
  L 548.21 673.59
  L 544.93 674.27
  L 541.21 674.82
  L 537.42 675.16
  L 533.68 675.28
  L 529.93 675.19
  L 526.32 674.90
  L 522.75 674.40
  L 519.33 673.70
  L 515.99 672.78
  L 512.88 671.70
  L 509.89 670.40
  L 507.12 668.95
  L 504.50 667.28
  L 502.14 665.49
  L 499.95 663.50
  L 498.01 661.38
  L 496.25 659.08
  L 494.35 655.94
  L 492.77 652.49
  L 491.60 648.86
  L 490.78 644.92
  L 490.60 644.55
  L 490.19 644.42
  L 471.08 644.49
  L 471.05 644.49
  L 470.72 644.66
  L 470.63 645.02
  L 471.87 651.07
  L 473.72 656.93
  L 476.11 662.36
  L 479.10 667.55
  L 481.93 671.48
  L 485.07 675.11
  L 488.58 678.51
  L 492.36 681.59
  L 496.50 684.42
  L 500.88 686.90
  L 505.55 689.08
  L 510.42 690.90
  L 515.51 692.37
  L 520.74 693.46
  L 526.08 694.18
  L 531.48 694.51
  L 536.92 694.46
  L 542.38 694.01
  L 547.71 693.20
  L 553.00 692.00
  L 558.55 690.25
  L 563.87 688.01
  L 567.36 686.19
  L 570.74 684.13
  L 575.33 680.80
  L 579.39 677.14
  L 582.93 673.16
  L 585.94 668.85
  L 585.94 668.85
  L 585.94 668.85
  L 585.94 668.85
  L 587.75 665.61
  L 589.30 662.21
  L 590.59 658.64
  L 591.62 654.91
  L 592.38 651.02
  L 592.88 646.97
  L 593.12 642.76
  L 593.09 638.38
  L 592.70 633.43
  L 591.89 628.62
  L 590.69 624.10
  L 589.08 619.78
  L 587.11 615.78
  L 584.75 612.04
  L 582.07 608.66
  L 579.00 605.59
  L 576.04 603.19
  L 572.79 601.05
  L 569.34 599.24
  L 565.63 597.71
  Z
  M 724.84 540.09
  L 696.09 590.52
  L 656.27 659.18
  L 637.42 691.58
  L 637.40 691.95
  L 637.67 692.20
  L 637.78 692.21
  L 659.08 692.16
  L 659.49 692.05
  L 659.78 691.76
  L 758.16 521.47
  L 758.20 520.85
  L 757.73 520.43
  L 757.55 520.41
  L 630.23 520.47
  L 629.84 520.63
  L 629.68 521.02
  L 629.69 538.78
  L 629.82 539.10
  L 630.13 539.25
  L 635.35 539.40
  L 724.40 539.33
  L 724.94 539.51
  L 724.84 540.09
  Z"
/>
<path fill="#3e3e40" d="
  M 902.23 462.39
  L 902.49 462.27
  L 902.60 462.00
  L 902.52 419.06
  L 902.30 410.46
  L 901.74 403.35
  L 900.82 397.21
  L 899.49 391.82
  L 897.53 386.68
  L 894.90 381.92
  L 893.27 379.62
  L 891.50 377.47
  L 889.52 375.40
  L 887.40 373.47
  L 882.55 369.89
  L 877.00 366.76
  L 870.69 364.06
  L 863.66 361.78
  L 855.84 359.90
  L 846.94 358.34
  L 831.91 356.49
  L 817.50 355.47
  L 804.77 355.04
  L 791.79 354.80
  L 764.94 354.94
  L 737.19 355.88
  L 708.60 357.61
  L 686.25 359.39
  L 663.78 361.47
  L 641.19 363.85
  L 618.49 366.52
  L 595.68 369.48
  L 572.74 372.74
  L 549.69 376.29
  L 526.53 380.14
  L 495.78 385.60
  L 465.11 391.39
  L 434.50 397.52
  L 403.97 403.98
  L 403.97 403.98
  L 403.97 403.98
  L 403.97 403.98
  L 403.97 403.98
  L 366.19 412.45
  L 328.52 421.44
  L 290.96 430.94
  L 253.51 440.95
  L 227.41 448.31
  L 191.85 458.72
  L 179.37 462.40
  L 167.36 466.08
  L 154.93 470.18
  L 153.92 470.48
  L 153.30 470.33
  L 153.07 470.12
  L 153.07 470.12
  L 153.24 469.87
  L 153.81 469.56
  L 178.91 459.05
  L 204.19 448.97
  L 229.65 439.32
  L 255.29 430.09
  L 281.12 421.28
  L 307.13 412.90
  L 333.32 404.94
  L 359.69 397.41
  L 390.01 389.24
  L 420.10 381.57
  L 449.92 374.40
  L 479.63 367.70
  L 509.22 361.46
  L 538.79 355.68
  L 568.29 350.36
  L 597.82 345.48
  L 608.48 343.83
  L 634.95 340.02
  L 660.58 336.79
  L 685.61 334.11
  L 709.90 331.99
  L 733.61 330.41
  L 756.86 329.38
  L 779.51 328.90
  L 801.74 328.96
  L 814.89 329.26
  L 826.31 329.77
  L 836.76 330.52
  L 846.35 331.52
  L 855.48 332.81
  L 864.13 334.40
  L 872.24 336.28
  L 879.95 338.48
  L 886.63 340.86
  L 892.85 343.67
  L 898.60 346.89
  L 903.89 350.53
  L 907.65 353.67
  L 911.11 357.18
  L 913.21 359.68
  L 915.13 362.27
  L 918.52 367.90
  L 921.36 374.17
  L 923.60 381.01
  L 925.27 388.46
  L 926.42 396.59
  L 927.08 405.69
  L 927.28 416.26
  L 927.30 483.53
  L 927.26 483.75
  L 926.81 484.29
  L 926.67 484.31
  L 675.30 484.38
  L 443.01 484.17
  L 310.78 483.65
  L 138.65 482.43
  L 138.49 482.38
  L 138.43 482.22
  L 138.40 481.93
  L 138.42 481.84
  L 138.51 481.79
  L 145.94 480.75
  L 154.16 479.93
  L 163.62 479.27
  L 176.75 478.60
  L 279.26 473.43
  L 299.24 472.45
  L 386.12 469.00
  L 473.02 466.24
  L 552.13 464.33
  L 631.26 462.99
  L 651.25 462.82
  L 772.87 462.53
  L 894.50 462.58
  L 902.23 462.39
  Z"
/>
<path fill="#3e3e40" d="
  M 800.65 420.65
  L 780.93 420.14
  L 761.19 419.93
  L 741.44 420.01
  L 721.67 420.39
  L 720.71 420.42
  L 695.35 421.23
  L 669.89 422.31
  L 644.04 423.66
  L 617.43 425.31
  L 590.09 427.24
  L 561.26 429.50
  L 496.23 435.29
  L 445.22 440.22
  L 400.42 444.77
  L 361.85 448.95
  L 329.49 452.76
  L 249.92 462.77
  L 171.00 473.02
  L 150.19 476.14
  L 149.84 476.09
  L 149.66 475.79
  L 149.60 475.53
  L 149.61 475.39
  L 149.73 475.30
  L 150.15 475.17
  L 154.39 474.08
  L 189.76 466.56
  L 224.99 459.40
  L 260.10 452.57
  L 295.07 446.10
  L 327.16 440.44
  L 359.34 435.04
  L 391.61 429.90
  L 423.96 425.01
  L 456.40 420.39
  L 488.93 416.02
  L 521.54 411.92
  L 554.24 408.07
  L 592.35 404.08
  L 630.63 400.74
  L 669.09 398.04
  L 707.72 395.99
  L 726.94 395.26
  L 745.73 394.81
  L 764.09 394.63
  L 782.02 394.73
  L 795.32 395.05
  L 808.09 395.65
  L 820.33 396.52
  L 832.04 397.67
  L 840.63 399.03
  L 849.60 401.18
  L 855.16 403.07
  L 860.09 405.48
  L 864.32 408.37
  L 866.21 410.01
  L 867.95 411.80
  L 870.90 415.68
  L 873.28 420.10
  L 875.12 425.12
  L 876.40 430.73
  L 876.32 431.06
  L 875.88 431.21
  L 856.22 426.77
  L 844.24 424.53
  L 830.90 422.75
  L 816.31 421.45
  L 800.65 420.65
  Z"
/>
<path fill="#3e3e40" d="
  M 96.77 512.98
  L 96.84 407.33
  L 97.00 406.95
  L 97.38 406.79
  L 123.11 406.73
  L 123.49 406.89
  L 123.65 407.27
  L 123.62 486.85
  L 123.46 487.23
  L 97.70 513.36
  L 97.61 513.43
  L 97.06 513.46
  L 96.77 512.98
  Z"
/>
<path fill="#3e3e40" d="
  M 897.76 613.09
  L 897.65 612.60
  L 897.23 612.87
  L 894.11 616.12
  L 890.22 619.52
  L 886.08 622.51
  L 881.60 625.17
  L 876.90 627.41
  L 871.87 629.30
  L 866.67 630.76
  L 861.24 631.83
  L 855.69 632.46
  L 848.67 632.76
  L 841.90 632.60
  L 835.44 631.97
  L 829.30 630.89
  L 823.41 629.33
  L 817.88 627.33
  L 812.59 624.84
  L 807.68 621.92
  L 803.00 618.50
  L 798.80 614.76
  L 795.09 610.70
  L 791.85 606.33
  L 789.15 601.73
  L 786.90 596.83
  L 785.13 591.62
  L 783.81 586.10
  L 782.93 579.62
  L 782.76 573.12
  L 783.29 566.68
  L 784.54 560.35
  L 786.45 554.40
  L 789.03 548.70
  L 792.27 543.37
  L 796.06 538.58
  L 798.29 536.23
  L 798.61 535.92
  L 803.37 531.80
  L 808.66 528.16
  L 814.33 525.11
  L 820.48 522.59
  L 827.02 520.64
  L 833.98 519.25
  L 841.15 518.47
  L 848.63 518.28
  L 856.29 518.67
  L 863.52 519.62
  L 870.32 521.13
  L 876.69 523.20
  L 880.99 525.02
  L 885.04 527.10
  L 888.94 529.48
  L 892.59 532.11
  L 897.60 536.49
  L 902.20 541.50
  L 906.22 546.97
  L 909.77 553.04
  L 912.76 559.54
  L 915.21 566.58
  L 917.07 573.99
  L 918.33 581.65
  L 919.14 590.39
  L 919.43 599.00
  L 919.18 607.53
  L 918.41 615.81
  L 917.11 623.80
  L 915.30 631.45
  L 912.97 638.83
  L 910.14 645.79
  L 907.06 651.94
  L 903.59 657.73
  L 899.69 663.21
  L 895.42 668.29
  L 890.76 673.00
  L 885.77 677.28
  L 880.48 681.12
  L 874.91 684.49
  L 868.82 687.52
  L 862.47 690.01
  L 855.89 691.97
  L 849.11 693.37
  L 842.23 694.19
  L 835.21 694.45
  L 828.16 694.13
  L 821.01 693.23
  L 814.00 691.77
  L 807.18 689.76
  L 807.18 689.76
  L 801.05 687.42
  L 795.08 684.60
  L 794.79 684.28
  L 794.77 683.84
  L 799.94 666.71
  L 800.27 666.33
  L 800.77 666.32
  L 800.82 666.34
  L 806.36 668.94
  L 811.98 671.08
  L 817.70 672.75
  L 823.48 673.96
  L 829.48 674.73
  L 835.53 675.01
  L 841.62 674.82
  L 847.74 674.15
  L 852.91 673.15
  L 857.81 671.73
  L 862.56 669.86
  L 867.03 667.61
  L 870.28 665.61
  L 873.35 663.40
  L 876.33 660.93
  L 879.11 658.27
  L 881.73 655.39
  L 884.16 652.35
  L 886.45 649.06
  L 888.54 645.62
  L 890.46 641.95
  L 892.16 638.14
  L 893.65 634.22
  L 894.91 630.19
  L 895.97 626.01
  L 896.79 621.76
  L 897.39 617.45
  L 897.76 613.09
  Z
  M 837.43 537.93
  L 832.42 538.93
  L 827.62 540.43
  L 823.07 542.44
  L 818.85 544.92
  L 815.14 547.75
  L 811.83 551.01
  L 809.05 554.57
  L 806.75 558.51
  L 804.92 563.03
  L 803.75 567.73
  L 803.22 571.75
  L 803.06 575.69
  L 803.25 579.53
  L 803.79 583.26
  L 804.69 586.90
  L 805.93 590.38
  L 807.52 593.69
  L 809.44 596.81
  L 811.23 599.17
  L 813.23 601.39
  L 815.44 603.46
  L 817.85 605.36
  L 820.45 607.08
  L 823.23 608.62
  L 826.12 609.93
  L 829.18 611.06
  L 832.95 612.12
  L 836.93 612.90
  L 841.22 613.43
  L 845.61 613.69
  L 850.26 613.69
  L 854.89 613.41
  L 859.54 612.86
  L 864.03 612.06
  L 868.20 611.01
  L 872.17 609.65
  L 875.81 608.02
  L 879.21 606.09
  L 882.30 603.90
  L 885.10 601.41
  L 887.53 598.72
  L 889.65 595.75
  L 891.52 592.29
  L 892.98 588.53
  L 893.99 584.58
  L 894.56 580.33
  L 894.66 574.66
  L 894.03 569.22
  L 892.71 564.19
  L 890.66 559.42
  L 888.97 556.54
  L 887.02 553.86
  L 884.76 551.31
  L 882.28 548.98
  L 879.47 546.78
  L 876.46 544.81
  L 873.18 543.03
  L 869.73 541.49
  L 866.04 540.15
  L 862.22 539.07
  L 858.20 538.23
  L 854.11 537.64
  L 849.94 537.32
  L 845.75 537.26
  L 841.57 537.46
  L 837.43 537.93
  Z"
/>
<path fill="#3e3e40" d="
  M 117.64 672.87
  L 213.62 672.80
  L 213.96 672.94
  L 214.10 673.28
  L 214.17 691.72
  L 214.03 692.06
  L 213.69 692.20
  L 97.33 692.28
  L 97.04 692.18
  L 96.85 691.80
  L 96.73 520.41
  L 96.79 520.18
  L 97.21 519.93
  L 116.72 520.01
  L 117.06 520.15
  L 117.20 520.49
  L 117.16 672.39
  L 117.49 672.85
  L 117.64 672.87
  Z"
/>
<path fill="#3e3e40" d="
  M 278.79 563.31
  L 278.38 562.90
  L 278.25 563.46
  L 278.36 691.67
  L 278.24 691.97
  L 277.94 692.10
  L 277.94 692.10
  L 259.02 692.22
  L 258.72 692.15
  L 258.43 691.89
  L 258.32 691.52
  L 258.31 520.35
  L 258.65 520.01
  L 276.12 519.97
  L 276.87 520.17
  L 277.41 520.73
  L 342.01 640.10
  L 342.09 640.21
  L 342.51 640.35
  L 342.88 640.10
  L 402.25 531.77
  L 408.11 520.70
  L 408.51 520.27
  L 409.07 520.11
  L 425.91 520.05
  L 426.38 520.20
  L 426.53 520.67
  L 426.64 691.56
  L 426.64 691.56
  L 426.47 691.96
  L 426.06 692.13
  L 407.77 692.12
  L 407.15 691.87
  L 406.90 691.26
  L 406.71 563.00
  L 406.57 562.59
  L 406.22 562.57
  L 406.11 562.65
  L 349.41 666.32
  L 349.10 666.65
  L 348.64 666.77
  L 336.24 666.79
  L 335.65 666.63
  L 335.22 666.19
  L 312.66 624.32
  L 289.70 582.25
  L 284.31 572.66
  L 278.79 563.31
  Z"
/>
<path fill="#3e3e40" d="
  M 565.63 597.71
  L 569.34 599.24
  L 572.79 601.05
  L 576.04 603.19
  L 579.00 605.59
  L 582.07 608.66
  L 584.75 612.04
  L 587.11 615.78
  L 589.08 619.78
  L 590.69 624.10
  L 591.89 628.62
  L 592.70 633.43
  L 593.09 638.38
  L 593.12 642.76
  L 592.88 646.97
  L 592.38 651.02
  L 591.62 654.91
  L 590.59 658.64
  L 589.30 662.21
  L 587.75 665.61
  L 585.94 668.85
  L 585.94 668.85
  L 585.94 668.85
  L 585.94 668.85
  L 582.93 673.16
  L 579.39 677.14
  L 575.33 680.80
  L 570.74 684.13
  L 567.36 686.19
  L 563.87 688.01
  L 563.87 688.01
  L 558.55 690.25
  L 553.00 692.00
  L 547.71 693.20
  L 542.38 694.01
  L 536.92 694.46
  L 531.48 694.51
  L 526.08 694.18
  L 520.74 693.46
  L 515.51 692.37
  L 510.42 690.90
  L 505.55 689.08
  L 500.88 686.90
  L 496.50 684.42
  L 492.36 681.59
  L 488.58 678.51
  L 485.07 675.11
  L 481.93 671.48
  L 479.10 667.55
  L 476.11 662.36
  L 473.72 656.93
  L 471.87 651.07
  L 470.63 645.02
  L 470.72 644.66
  L 471.05 644.49
  L 471.08 644.49
  L 490.19 644.42
  L 490.60 644.55
  L 490.78 644.92
  L 491.60 648.86
  L 492.77 652.49
  L 494.35 655.94
  L 496.25 659.08
  L 498.01 661.38
  L 499.95 663.50
  L 502.14 665.49
  L 504.50 667.28
  L 507.12 668.95
  L 509.89 670.40
  L 512.88 671.70
  L 515.99 672.78
  L 519.33 673.70
  L 522.75 674.40
  L 526.32 674.90
  L 529.93 675.19
  L 533.68 675.28
  L 537.42 675.16
  L 541.21 674.82
  L 544.93 674.27
  L 548.21 673.59
  L 551.29 672.73
  L 554.17 671.69
  L 556.85 670.48
  L 559.33 669.09
  L 561.61 667.52
  L 563.70 665.78
  L 565.58 663.86
  L 565.58 663.86
  L 568.06 660.59
  L 570.08 656.92
  L 571.64 652.84
  L 572.73 648.35
  L 573.28 644.26
  L 573.43 640.17
  L 573.17 636.24
  L 572.48 632.40
  L 571.43 628.87
  L 569.96 625.52
  L 568.15 622.49
  L 565.93 619.69
  L 563.32 617.19
  L 560.29 614.99
  L 559.91 614.76
  L 557.04 613.20
  L 553.92 611.90
  L 550.66 610.89
  L 547.14 610.13
  L 543.40 609.62
  L 539.31 609.32
  L 528.44 609.29
  L 521.09 609.34
  L 520.68 609.17
  L 520.51 608.76
  L 520.39 590.26
  L 520.52 589.93
  L 520.85 589.80
  L 538.46 589.75
  L 542.16 589.56
  L 545.70 589.01
  L 549.05 588.11
  L 552.18 586.86
  L 555.07 585.28
  L 557.69 583.38
  L 559.94 581.23
  L 561.89 578.80
  L 563.83 575.39
  L 565.21 571.58
  L 565.97 567.52
  L 566.11 563.10
  L 565.66 558.80
  L 564.69 554.99
  L 563.17 551.54
  L 561.18 548.58
  L 559.21 546.50
  L 556.97 544.72
  L 554.39 543.19
  L 551.56 541.95
  L 548.34 540.94
  L 544.90 540.24
  L 541.22 539.80
  L 537.18 539.64
  L 499.00 539.61
  L 498.77 539.53
  L 498.61 539.22
  L 498.55 520.99
  L 498.71 520.52
  L 499.18 520.36
  L 535.62 520.22
  L 537.60 520.23
  L 537.60 520.23
  L 542.67 520.42
  L 547.73 520.84
  L 552.04 521.47
  L 556.18 522.42
  L 560.11 523.70
  L 563.83 525.30
  L 567.28 527.18
  L 570.49 529.37
  L 573.44 531.85
  L 576.11 534.63
  L 579.09 538.56
  L 581.58 542.95
  L 583.50 547.67
  L 584.88 552.81
  L 585.61 557.25
  L 585.95 561.62
  L 585.90 565.91
  L 585.44 570.09
  L 584.59 574.07
  L 583.34 577.91
  L 581.72 581.47
  L 579.71 584.84
  L 576.93 588.44
  L 573.61 591.72
  L 569.86 594.59
  L 565.59 597.11
  L 565.42 597.36
  L 565.52 597.65
  L 565.52 597.65
  L 565.63 597.71
  Z"
/>
<path fill="#3e3e40" d="
  M 724.84 540.09
  L 724.94 539.51
  L 724.40 539.33
  L 635.35 539.40
  L 630.13 539.25
  L 629.82 539.10
  L 629.69 538.78
  L 629.68 521.02
  L 629.84 520.63
  L 630.23 520.47
  L 757.55 520.41
  L 757.73 520.43
  L 758.20 520.85
  L 758.16 521.47
  L 659.78 691.76
  L 659.49 692.05
  L 659.08 692.16
  L 637.78 692.21
  L 637.67 692.20
  L 637.40 691.95
  L 637.42 691.58
  L 656.27 659.18
  L 696.09 590.52
  L 724.84 540.09
  Z"
/>
<path fill="#fcfcfc" d="
  M 803.75 567.73
  L 804.92 563.03
  L 806.75 558.51
  L 809.05 554.57
  L 811.83 551.01
  L 815.14 547.75
  L 818.85 544.92
  L 823.07 542.44
  L 827.62 540.43
  L 832.42 538.93
  L 837.43 537.93
  L 841.57 537.46
  L 845.75 537.26
  L 849.94 537.32
  L 854.11 537.64
  L 858.20 538.23
  L 862.22 539.07
  L 866.04 540.15
  L 869.73 541.49
  L 873.18 543.03
  L 876.46 544.81
  L 879.47 546.78
  L 882.28 548.98
  L 884.76 551.31
  L 887.02 553.86
  L 888.97 556.54
  L 890.66 559.42
  L 892.71 564.19
  L 894.03 569.22
  L 894.66 574.66
  L 894.56 580.33
  L 893.99 584.58
  L 892.98 588.53
  L 891.52 592.29
  L 889.65 595.75
  L 887.53 598.72
  L 885.10 601.41
  L 882.30 603.90
  L 879.21 606.09
  L 875.81 608.02
  L 872.17 609.65
  L 868.20 611.01
  L 864.03 612.06
  L 859.54 612.86
  L 854.89 613.41
  L 850.26 613.69
  L 845.61 613.69
  L 841.22 613.43
  L 836.93 612.90
  L 832.95 612.12
  L 829.18 611.06
  L 826.12 609.93
  L 823.23 608.62
  L 820.45 607.08
  L 817.85 605.36
  L 815.44 603.46
  L 813.23 601.39
  L 811.23 599.17
  L 809.44 596.81
  L 807.52 593.69
  L 805.93 590.38
  L 804.69 586.90
  L 803.79 583.26
  L 803.25 579.53
  L 803.06 575.69
  L 803.22 571.75
  L 803.75 567.73
  Z"
/>
</svg>
